<?xml version="1.0" encoding="UTF-8" standalone="no"?>
<!DOCTYPE svg PUBLIC "-//W3C//DTD SVG 1.1//EN" "http://www.w3.org/Graphics/SVG/1.1/DTD/svg11.dtd">
<svg version="1.1" xmlns="http://www.w3.org/2000/svg" xmlns:xlink="http://www.w3.org/1999/xlink" preserveAspectRatio="xMidYMid meet" viewBox="0 0 85 190" width="85" height="190"><defs><path d="M51.24 1.04L52.94 1.09L54.59 1.17L56.19 1.28L57.74 1.4L59.24 1.56L60.69 1.73L62.08 1.93L63.43 2.15L64.72 2.39L65.97 2.66L67.16 2.95L68.3 3.27L69.39 3.61L70.43 3.97L71.42 4.35L72.36 4.76L73.24 5.19L74.08 5.65L74.86 6.13L75.6 6.63L76.28 7.16L76.91 7.7L77.49 8.28L78.02 8.87L78.5 9.49L78.93 10.14L79.31 10.8L79.64 11.49L79.91 12.21L80.28 13.36L80.63 14.63L80.97 16.02L81.29 17.54L81.59 19.17L81.88 20.92L82.15 22.78L82.41 24.76L82.64 26.84L82.86 29.03L83.07 31.33L83.25 33.73L83.41 36.24L83.56 38.84L83.69 41.54L83.8 44.34L83.89 47.23L83.96 50.22L84.01 53.29L84.04 56.46L84.04 59.7L84.03 63.04L84 66.45L83.94 69.95L83.87 73.52L83.77 77.17L83.65 80.9L83.5 84.7L83.33 88.57L83.14 92.5L82.93 96.51L82.69 100.57L82.43 104.7L82.15 108.89L81.84 113.14L81.5 117.45L81.14 121.81L80.76 126.23L80.35 130.69L79.91 135.21L79.48 139.61L79.07 143.75L78.68 147.63L78.3 151.27L77.94 154.66L77.58 157.83L77.22 160.77L76.85 163.5L76.47 166.02L76.08 168.35L75.66 170.48L75.22 172.43L74.74 174.21L74.23 175.82L73.67 177.27L73.07 178.57L72.41 179.74L71.7 180.76L70.92 181.67L70.07 182.46L69.14 183.13L68.14 183.71L67.05 184.2L65.87 184.6L64.6 184.92L63.22 185.18L61.89 185.36L61.62 185.46L23.89 185.46L23.63 185.36L22.29 185.18L20.92 184.92L19.64 184.6L18.46 184.2L17.37 183.71L16.37 183.13L15.45 182.46L14.6 181.67L13.82 180.76L13.1 179.74L12.44 178.57L11.84 177.27L11.28 175.82L10.77 174.21L10.29 172.43L9.85 170.48L9.43 168.35L9.04 166.02L8.66 163.5L8.3 160.77L7.94 157.83L7.58 154.66L7.21 151.27L6.84 147.63L6.45 143.75L6.04 139.61L5.6 135.21L5.17 130.69L4.75 126.23L4.37 121.81L4.01 117.45L3.67 113.14L3.36 108.89L3.08 104.7L2.82 100.57L2.58 96.51L2.37 92.5L2.18 88.57L2.01 84.7L1.87 80.9L1.75 77.17L1.65 73.52L1.57 69.95L1.51 66.45L1.48 63.04L1.47 59.7L1.48 56.46L1.51 53.29L1.56 50.22L1.62 47.23L1.71 44.34L1.82 41.54L1.95 38.84L2.1 36.24L2.26 33.73L2.45 31.33L2.65 29.03L2.87 26.84L3.11 24.76L3.36 22.78L3.63 20.92L3.92 19.17L4.23 17.54L4.55 16.02L4.88 14.63L5.23 13.36L5.6 12.21L5.88 11.49L6.2 10.8L6.58 10.14L7.01 9.49L7.49 8.87L8.02 8.28L8.6 7.7L9.23 7.16L9.92 6.63L10.65 6.13L11.43 5.65L12.27 5.19L13.16 4.76L14.09 4.35L15.08 3.97L16.12 3.61L17.21 3.27L18.35 2.95L19.55 2.66L20.79 2.39L22.08 2.15L23.43 1.93L24.83 1.73L26.27 1.56L27.77 1.4L29.32 1.28L30.92 1.17L32.57 1.09L34.27 1.04L36.02 1L37.83 0.99L39.68 1.01L41.59 1.04L42.76 1.08L43.93 1.04L45.83 1.01L47.69 0.99L49.49 1L51.24 1.04Z" id="a2cADSCYMp"></path><path d="M50.65 4.3L52.23 4.34L53.76 4.41L55.25 4.49L56.69 4.59L58.08 4.71L59.43 4.84L60.73 5L61.98 5.18L63.18 5.37L64.34 5.58L65.44 5.81L66.51 6.06L67.52 6.33L68.49 6.61L69.41 6.91L70.28 7.24L71.1 7.58L71.88 7.94L72.61 8.32L73.29 8.71L73.93 9.13L74.51 9.56L75.05 10.01L75.55 10.48L75.99 10.97L76.39 11.48L76.74 12.01L77.05 12.55L77.3 13.11L77.64 14.02L77.97 15.03L78.28 16.13L78.58 17.32L78.86 18.61L79.13 19.99L79.39 21.46L79.62 23.02L79.84 24.66L80.05 26.39L80.23 28.21L80.41 30.1L80.56 32.08L80.7 34.14L80.82 36.27L80.92 38.48L81 40.76L81.06 43.12L81.11 45.54L81.14 48.04L81.14 50.6L81.13 53.23L81.1 55.93L81.05 58.69L80.98 61.51L80.89 64.39L80.77 67.33L80.64 70.33L80.53 72.42L80.4 72.42L80.41 72.89L80.38 74.69L80.28 76.47L80.13 78.24L79.92 79.98L79.64 81.7L79.31 83.39L78.93 85.06L78.49 86.7L77.99 88.32L77.45 89.9L76.85 91.45L76.2 92.97L75.51 94.46L74.76 95.91L73.97 97.32L73.14 98.7L72.26 100.04L71.34 101.33L70.37 102.59L69.37 103.79L68.33 104.96L67.25 106.08L66.13 107.15L64.98 108.17L63.79 109.13L62.57 110.05L61.32 110.91L60.04 111.72L58.73 112.47L57.39 113.17L56.03 113.8L54.64 114.37L53.22 114.88L51.78 115.33L50.32 115.71L48.84 116.03L47.34 116.28L45.82 116.46L44.29 116.57L42.73 116.6L41.18 116.57L39.65 116.46L38.13 116.28L36.63 116.03L35.15 115.71L33.68 115.33L32.25 114.88L30.83 114.37L29.44 113.8L28.08 113.17L26.74 112.47L25.43 111.72L24.15 110.91L22.89 110.05L21.68 109.13L20.49 108.17L19.34 107.15L18.22 106.08L17.14 104.96L16.1 103.79L15.1 102.59L14.13 101.33L13.21 100.04L12.33 98.7L11.5 97.32L10.71 95.91L9.96 94.46L9.27 92.97L8.62 91.45L8.02 89.9L7.47 88.32L6.98 86.7L6.54 85.06L6.15 83.39L5.82 81.7L5.55 79.98L5.34 78.24L5.18 76.47L5.09 74.69L5.06 72.89L5.07 72.42L4.98 72.42L4.87 70.33L4.74 67.33L4.63 64.39L4.53 61.51L4.46 58.69L4.41 55.93L4.38 53.23L4.37 50.6L4.38 48.04L4.4 45.54L4.45 43.12L4.51 40.76L4.6 38.48L4.7 36.27L4.82 34.14L4.95 32.08L5.11 30.1L5.28 28.21L5.47 26.39L5.67 24.66L5.89 23.02L6.13 21.46L6.38 19.99L6.65 18.61L6.93 17.32L7.23 16.13L7.54 15.03L7.87 14.02L8.21 13.11L8.47 12.55L8.77 12.01L9.12 11.48L9.52 10.97L9.97 10.48L10.46 10.01L11 9.56L11.59 9.13L12.22 8.71L12.9 8.32L13.63 7.94L14.41 7.58L15.23 7.24L16.11 6.91L17.03 6.61L17.99 6.33L19.01 6.06L20.07 5.81L21.18 5.58L22.33 5.37L23.54 5.18L24.79 5L26.08 4.84L27.43 4.71L28.82 4.59L30.26 4.49L31.75 4.41L33.28 4.34L34.87 4.3L36.5 4.27L38.17 4.26L39.9 4.27L41.67 4.3L42.76 4.33L43.84 4.3L45.61 4.27L47.34 4.26L49.02 4.27L50.65 4.3ZM3.44 60.9L3.44 60.9L3.37 62.39L3.44 60.9Z" id="a2atrFM9Cb"></path><path d="M49.89 6.84L51.32 6.88L52.7 6.93L54.05 7L55.35 7.09L56.61 7.19L57.82 7.31L59 7.45L60.13 7.6L61.21 7.77L62.26 7.95L63.26 8.15L64.22 8.36L65.14 8.6L66.01 8.84L66.84 9.11L67.63 9.39L68.37 9.68L69.08 9.99L69.73 10.32L70.35 10.66L70.93 11.02L71.46 11.4L71.94 11.79L72.39 12.2L72.79 12.62L73.15 13.06L73.47 13.51L73.74 13.99L73.98 14.47L74.28 15.26L74.58 16.13L74.86 17.08L75.13 18.12L75.39 19.23L75.63 20.43L75.86 21.7L76.07 23.05L76.27 24.48L76.46 25.97L76.63 27.54L76.78 29.19L76.92 30.9L77.04 32.68L77.15 34.52L77.24 36.43L77.32 38.41L77.38 40.45L77.42 42.55L77.44 44.71L77.45 46.93L77.44 49.21L77.41 51.55L77.36 53.94L77.3 56.38L77.22 58.87L77.11 61.42L76.99 64.01L76.9 65.83L76.78 65.83L76.78 66.23L76.76 67.79L76.67 69.34L76.53 70.86L76.34 72.37L76.09 73.86L75.79 75.32L75.45 76.77L75.05 78.19L74.6 79.59L74.11 80.96L73.57 82.31L72.98 83.62L72.35 84.91L71.68 86.16L70.97 87.39L70.21 88.58L69.42 89.74L68.58 90.86L67.71 91.94L66.81 92.99L65.87 94L64.89 94.97L63.88 95.89L62.84 96.78L61.77 97.62L60.67 98.41L59.54 99.16L58.38 99.86L57.19 100.51L55.98 101.11L54.75 101.66L53.49 102.15L52.21 102.59L50.91 102.98L49.59 103.31L48.26 103.59L46.9 103.8L45.53 103.96L44.14 104.05L42.74 104.08L41.33 104.05L39.95 103.96L38.57 103.8L37.22 103.59L35.88 103.31L34.56 102.98L33.26 102.59L31.98 102.15L30.72 101.66L29.49 101.11L28.28 100.51L27.09 99.86L25.94 99.16L24.81 98.41L23.71 97.62L22.63 96.78L21.59 95.89L20.58 94.97L19.61 94L18.67 92.99L17.76 91.94L16.89 90.86L16.06 89.74L15.26 88.58L14.51 87.39L13.79 86.16L13.12 84.91L12.49 83.62L11.91 82.31L11.37 80.96L10.87 79.59L10.42 78.19L10.03 76.77L9.68 75.32L9.38 73.86L9.13 72.37L8.94 70.86L8.8 69.34L8.72 67.79L8.69 66.23L8.69 65.83L8.62 65.83L8.52 64.01L8.4 61.42L8.3 58.87L8.21 56.38L8.15 53.94L8.1 51.55L8.07 49.21L8.06 46.93L8.07 44.71L8.1 42.55L8.14 40.45L8.2 38.41L8.27 36.43L8.36 34.52L8.47 32.68L8.59 30.9L8.73 29.19L8.89 27.54L9.06 25.97L9.24 24.48L9.44 23.05L9.65 21.7L9.88 20.43L10.12 19.23L10.38 18.12L10.65 17.08L10.93 16.13L11.23 15.26L11.54 14.47L11.77 13.99L12.04 13.51L12.36 13.06L12.72 12.62L13.12 12.2L13.57 11.79L14.06 11.4L14.59 11.02L15.16 10.66L15.78 10.32L16.44 9.99L17.14 9.68L17.88 9.39L18.67 9.11L19.5 8.84L20.38 8.6L21.29 8.36L22.25 8.15L23.25 7.95L24.3 7.77L25.39 7.6L26.52 7.45L27.69 7.31L28.91 7.19L30.16 7.09L31.47 7L32.81 6.93L34.2 6.88L35.63 6.84L37.1 6.82L38.61 6.81L40.17 6.82L41.77 6.84L42.76 6.87L43.74 6.84L45.34 6.82L46.9 6.81L48.41 6.82L49.89 6.84ZM7.23 55.85L7.23 55.85L7.16 57.14L7.23 55.85Z" id="cxUWXyNLR"></path></defs><g><g><g><use xlink:href="#a2cADSCYMp" opacity="1" fill="#323e67" fill-opacity="1"></use><g><use xlink:href="#a2cADSCYMp" opacity="1" fill-opacity="0" stroke="#000000" stroke-width="0" stroke-opacity="1"></use></g></g><g><use xlink:href="#a2atrFM9Cb" opacity="1" fill="#e9e9e9" fill-opacity="1"></use><g><use xlink:href="#a2atrFM9Cb" opacity="1" fill-opacity="0" stroke="#000000" stroke-width="0" stroke-opacity="1"></use></g></g><g><use xlink:href="#cxUWXyNLR" opacity="1" fill="#323e67" fill-opacity="1"></use><g><use xlink:href="#cxUWXyNLR" opacity="1" fill-opacity="0" stroke="#000000" stroke-width="0" stroke-opacity="1"></use></g></g></g></g></svg>